<svg width="248" height="56" viewBox="0 0 248 56" fill="none" xmlns="http://www.w3.org/2000/svg">
<g clip-path="url(#clip0_21_4108)">
<path d="M62.9844 21.0574C67.179 21.0574 69.3903 23.4013 70.0428 26.6495L66.4178 27.4342C66.1381 25.5685 65.1335 24.2796 62.9481 24.2796C60.5142 24.2796 59.2092 26.0206 59.2092 28.3905C59.2092 30.7604 60.4158 32.4495 62.9274 32.4495C65.1594 32.4495 66.164 31.1138 66.4178 29.222L70.0894 29.9548C69.5094 33.229 67.1738 35.6717 62.9326 35.6717C58.158 35.6717 55.5739 32.4962 55.5739 28.3645C55.5739 24.2328 58.3392 21.0574 62.9844 21.0574Z" fill="#141414"/>
<path d="M81.1405 21.7174L80.0374 25.3554C79.2795 24.7837 78.3491 24.4902 77.4016 24.5239C75.848 24.5239 74.8641 25.6049 74.8641 27.6733V35.4482H71.1976V21.3329H74.8226V25.4906C75.2732 22.5906 76.3296 21.1042 78.7169 21.1042C79.5653 21.0833 80.4033 21.2954 81.1405 21.7174Z" fill="#141414"/>
<path d="M88.0227 21.0574C92.8439 21.0574 95.1587 24.2068 95.1587 27.9384C95.1587 28.2138 95.1587 28.4581 95.1587 28.7907H84.1336C84.2579 31.0618 85.5629 32.4754 87.9968 32.4754C89.9595 32.4754 90.9382 31.6439 91.5648 30.0796L95.0085 31.2905C93.9728 33.8891 91.6632 35.6977 88.1262 35.6977C83.0357 35.6977 80.5914 32.6314 80.5914 28.4737C80.5914 24.4823 83.3516 21.0574 88.0227 21.0574ZM84.1543 27.8604H91.5907V27.8344C91.5907 25.8699 90.555 24.2796 88.0227 24.2796C85.6871 24.2796 84.3562 25.7192 84.1543 27.8604Z" fill="#141414"/>
<path d="M96.0598 28.3905C96.0598 24.3056 98.7993 21.0574 103.517 21.0574C108.317 21.0574 111 24.316 111 28.3905C111 32.4651 108.292 35.6977 103.517 35.6977C98.7423 35.6977 96.0598 32.5222 96.0598 28.3905ZM107.339 28.3905C107.339 25.9687 106.132 24.2796 103.517 24.2796C100.902 24.2796 99.7003 26.0206 99.7003 28.3905C99.7003 30.7604 100.855 32.4495 103.517 32.4495C106.179 32.4495 107.339 30.7604 107.339 28.3905Z" fill="#141414"/>
<path d="M48.1012 17.5282V30.3963C46.6192 30.6883 45.1191 30.8793 43.6114 30.9679C38.7383 31.285 36.9725 29.5803 37.133 24.7314C37.1363 24.4188 37.1553 24.1066 37.19 23.7959C37.576 21.1458 38.2018 18.5365 39.0594 16.0002L46.5787 16.0002C46.9825 16.0002 47.3697 16.1612 47.6553 16.4478C47.9408 16.7343 48.1012 17.123 48.1012 17.5282Z" fill="#FFCB00"/>
<path d="M48.1012 34.0038V38.6812C48.1019 38.8821 48.063 39.0811 47.9867 39.2668C47.9104 39.4525 47.7983 39.6212 47.6568 39.7632C47.5153 39.9052 47.3472 40.0177 47.1621 40.0943C46.9771 40.1708 46.7788 40.2099 46.5787 40.2092H36.0507C33.4941 40.2068 31.005 39.3857 28.9457 37.8653C32.4723 33.1359 37.2728 31.3845 43.4457 32.5642C45.0464 32.8673 46.6081 33.3502 48.1012 34.0038Z" fill="#36C5F0"/>
<path d="M27.3248 35.8013L26.9157 35.9832C25.4631 34.2883 24.5068 32.2226 24.153 30.0154C23.7992 27.8081 24.0617 25.5457 24.9114 23.4791C25.761 21.4125 27.1646 19.6225 28.9664 18.3079C30.7682 16.9932 32.8976 16.2053 35.1185 16.0315C35.5826 17.7092 35.8776 19.4294 35.9989 21.1662C36.4753 28.068 33.6012 32.9065 27.3248 35.8013Z" fill="#FF3A53"/>
</g>
<path d="M116.119 33.5V23.3182H117.605V27.1016H117.695C117.781 26.9425 117.905 26.7585 118.067 26.5497C118.23 26.3409 118.455 26.1586 118.744 26.0028C119.032 25.8438 119.413 25.7642 119.887 25.7642C120.504 25.7642 121.054 25.92 121.538 26.2315C122.022 26.5431 122.401 26.9922 122.676 27.5788C122.955 28.1655 123.094 28.8714 123.094 29.6967C123.094 30.522 122.956 31.2296 122.681 31.8196C122.406 32.4062 122.028 32.8587 121.548 33.1768C121.067 33.4917 120.518 33.6491 119.902 33.6491C119.438 33.6491 119.058 33.5713 118.763 33.4155C118.472 33.2597 118.243 33.0774 118.077 32.8686C117.912 32.6598 117.784 32.4742 117.695 32.3118H117.57V33.5H116.119ZM117.575 29.6818C117.575 30.2187 117.653 30.6894 117.809 31.0938C117.965 31.4981 118.19 31.8146 118.485 32.0433C118.78 32.2687 119.141 32.3814 119.569 32.3814C120.013 32.3814 120.384 32.2637 120.683 32.0284C120.981 31.7898 121.206 31.4666 121.359 31.0589C121.514 30.6513 121.592 30.1922 121.592 29.6818C121.592 29.178 121.516 28.7256 121.364 28.3246C121.214 27.9235 120.989 27.607 120.688 27.375C120.389 27.143 120.016 27.027 119.569 27.027C119.138 27.027 118.773 27.138 118.475 27.3601C118.18 27.5821 117.956 27.892 117.804 28.2898C117.652 28.6875 117.575 29.1515 117.575 29.6818ZM128.054 33.6541C127.302 33.6541 126.654 33.4934 126.11 33.1719C125.57 32.8471 125.152 32.3913 124.857 31.8047C124.566 31.2147 124.42 30.5237 124.42 29.7315C124.42 28.9493 124.566 28.2599 124.857 27.6634C125.152 27.0668 125.563 26.6011 126.09 26.2663C126.621 25.9316 127.24 25.7642 127.95 25.7642C128.381 25.7642 128.798 25.8355 129.203 25.978C129.607 26.1205 129.97 26.3442 130.291 26.6491C130.613 26.9541 130.866 27.3501 131.052 27.8374C131.238 28.3213 131.33 28.9096 131.33 29.6023V30.1293H125.26V29.0156H129.874C129.874 28.6245 129.794 28.2782 129.635 27.9766C129.476 27.6716 129.252 27.4313 128.964 27.2557C128.679 27.08 128.344 26.9922 127.96 26.9922C127.542 26.9922 127.177 27.0949 126.866 27.3004C126.558 27.5026 126.319 27.7678 126.15 28.0959C125.984 28.4207 125.901 28.7737 125.901 29.1548V30.0249C125.901 30.5353 125.991 30.9695 126.17 31.3274C126.352 31.6854 126.606 31.9588 126.931 32.1477C127.255 32.3333 127.635 32.4261 128.069 32.4261C128.351 32.4261 128.608 32.3864 128.84 32.3068C129.072 32.224 129.272 32.1013 129.441 31.9389C129.61 31.7765 129.74 31.576 129.829 31.3374L131.236 31.5909C131.123 32.0052 130.921 32.3681 130.629 32.6797C130.341 32.9879 129.978 33.2282 129.541 33.4006C129.106 33.5696 128.611 33.6541 128.054 33.6541ZM136.544 25.8636V27.0568H132.373V25.8636H136.544ZM133.492 24.0341H134.978V31.2578C134.978 31.5462 135.021 31.7633 135.108 31.9091C135.194 32.0516 135.305 32.1494 135.441 32.2024C135.58 32.2521 135.731 32.277 135.893 32.277C136.012 32.277 136.117 32.2687 136.206 32.2521C136.296 32.2356 136.365 32.2223 136.415 32.2124L136.684 33.4403C136.597 33.4735 136.475 33.5066 136.316 33.5398C136.157 33.5762 135.958 33.5961 135.719 33.5994C135.328 33.6061 134.963 33.5365 134.625 33.3906C134.287 33.2448 134.014 33.0194 133.805 32.7145C133.596 32.4096 133.492 32.0268 133.492 31.5661V24.0341ZM140.411 33.669C139.927 33.669 139.49 33.5795 139.099 33.4006C138.707 33.2183 138.398 32.9548 138.169 32.6101C137.943 32.2654 137.831 31.8428 137.831 31.3423C137.831 30.9115 137.914 30.5568 138.079 30.2784C138.245 30 138.469 29.7796 138.751 29.6172C139.032 29.4548 139.347 29.3321 139.695 29.2493C140.043 29.1664 140.398 29.1035 140.759 29.0604C141.216 29.0073 141.588 28.9643 141.873 28.9311C142.158 28.8946 142.365 28.8366 142.494 28.7571C142.623 28.6776 142.688 28.5483 142.688 28.3693V28.3345C142.688 27.9003 142.565 27.5639 142.32 27.3253C142.078 27.0866 141.717 26.9673 141.236 26.9673C140.736 26.9673 140.341 27.0784 140.053 27.3004C139.768 27.5192 139.571 27.7628 139.461 28.0312L138.064 27.7131C138.23 27.2491 138.472 26.8745 138.79 26.5895C139.112 26.3011 139.481 26.0923 139.899 25.9631C140.317 25.8305 140.756 25.7642 141.216 25.7642C141.521 25.7642 141.845 25.8007 142.186 25.8736C142.531 25.9432 142.852 26.0724 143.15 26.2614C143.452 26.4503 143.699 26.7204 143.891 27.0717C144.083 27.4197 144.18 27.8722 144.18 28.429V33.5H142.728V32.456H142.668C142.572 32.6482 142.428 32.8371 142.236 33.0227C142.043 33.2083 141.796 33.3625 141.495 33.4851C141.193 33.6077 140.832 33.669 140.411 33.669ZM140.734 32.4759C141.145 32.4759 141.497 32.3946 141.788 32.2322C142.083 32.0698 142.307 31.8577 142.459 31.5959C142.615 31.3307 142.693 31.0473 142.693 30.7457V29.7614C142.64 29.8144 142.537 29.8641 142.385 29.9105C142.236 29.9536 142.065 29.9917 141.873 30.0249C141.68 30.0547 141.493 30.0829 141.311 30.1094C141.129 30.1326 140.976 30.1525 140.854 30.169C140.565 30.2055 140.302 30.2668 140.063 30.353C139.828 30.4392 139.639 30.5634 139.496 30.7259C139.357 30.8849 139.287 31.0971 139.287 31.3622C139.287 31.7301 139.423 32.0085 139.695 32.1974C139.967 32.383 140.313 32.4759 140.734 32.4759Z" fill="#141414"/>
<defs>
<clipPath id="clip0_21_4108">
<rect width="87" height="24" fill="white" transform="translate(24 16)"/>
</clipPath>
</defs>
</svg>
